<?xml version="1.0" encoding="utf-8"?>
<!-- Generator: Adobe Illustrator 24.0.1, SVG Export Plug-In . SVG Version: 6.00 Build 0)  -->
<svg version="1.1" id="Layer_1" xmlns="http://www.w3.org/2000/svg" xmlns:xlink="http://www.w3.org/1999/xlink" x="0px" y="0px"
	 viewBox="0 0 583.2 583.2" style="enable-background:new 0 0 583.2 583.2;" xml:space="preserve">
<style type="text/css">
	.st0{fill:none;stroke:#474747;stroke-width:18;stroke-miterlimit:10;}
	.st1{fill:none;stroke:#474747;stroke-width:8;stroke-miterlimit:10;}
	.st2{fill:none;stroke:#474747;stroke-width:5;stroke-miterlimit:10;}
	.st3{font-family:'ArialMT';}
	.st4{font-size:48px;}
</style>
<path class="st0" d="M148.3,342.2l1.1-193c0-0.2,0-0.3-0.1-0.5c-1.1-4.3-15.1-69.2,99-94.9c118-26.6,185.6,48.8,178.9,95.1
	c-6.3,43.6,16.9,179.3,16.6,179.8C401,429,345,512.2,334.5,534.9c-0.5,1.2-21.9-18.4-22.9-19.3l-59.7-61.1c-0.5-0.5-1.1-1-1.6-1.5
	c-43.4-45,1.6,1.5-43.4-45c-25.4-26.2-24.5-33.6-31.1-38.7c-26.2-20.4-21.8-17.2-23.1-22.1c-4-16.3,42.6-41,57.9-47
	c23.1-9.1,51.2-9.6,71.1,5.3c10.5,7.9,18,19.3,28.9,26.7c16.6,11.2,40.2,10.7,56.3-1.2c11.1-8.2,22.9-22,35.4-16.4
	c4.3,1.9,7.3,5.8,11,8.7c11.4,8.7,16.5,8.2,30.6,5.5"/>
<line class="st0" x1="148.3" y1="151.5" x2="426.1" y2="151.5"/>
<path class="st1" d="M267.6,454.5c31.5-5.9,62-10.5,94-10.4c-30.3,3.2-61.9,9.3-92,14c25.7-2.5,64.9-12.9,90.7-11.7
	c-22.9-2.8-48.4,4.7-70.1,12.8c23.4,2,44.1-2.7,67.6-0.7c-11.5,31.9-25.7,100.8-65.4,14.5c22-3.2,5.2-9.7,27.2-12.9
	c-17.7-1.4-0.6-14.8-18.2-13.8c-5.6,0.3-8.9,20.8-8.9,26.7c20.3,1.5,27.9-6.2,47.9-2.1c-16.1,6.8-21.2,17.9-38.4,15.2
	c0-5.3-5.4-38.9-0.6-39.8c8.2-1.6,27.4,34.3,28.7,43.1c1.3,8.8-2.9,23.2-11.3,22.9c-3.1-6.9-8.4-20.5-5.1-27.4c3-32,3-32,5.9-24.9
	c0.8,2.1,12.2,27.7,12.2,30c-0.1,5.7-0.2,11.5-0.3,17.2c0,2.5-0.2,5.2-1.6,7.2c-1.4,2-4.7,2.7-6.1,0.7c-4.4-7.6,2.7-16.6,8.7-22.8
	c6-6.2,34.3-40.3,27.9-46.1"/>
<circle class="st0" cx="291.6" cy="291.6" r="282.6"/>
<text transform="matrix(1 0 0 1 335.4404 224.0485)" class="st2 st3 st4">2B</text>
</svg>
