<?xml version="1.0" encoding="utf-8"?>
<!-- Generator: Adobe Illustrator 24.0.1, SVG Export Plug-In . SVG Version: 6.00 Build 0)  -->
<svg version="1.1" id="Layer_1" xmlns="http://www.w3.org/2000/svg" xmlns:xlink="http://www.w3.org/1999/xlink" x="0px" y="0px"
	 viewBox="0 0 583.22 583.22" style="enable-background:new 0 0 583.22 583.22;" xml:space="preserve">
<style type="text/css">
	.st0{fill:none;stroke:#474747;stroke-width:18;stroke-miterlimit:10;}
	.st1{fill:none;stroke:#474747;stroke-width:8;stroke-miterlimit:10;}
	.st2{fill:none;stroke:#474747;stroke-width:5;stroke-miterlimit:10;}
	.st3{font-family:'MyriadPro-Regular';}
	.st4{font-size:48px;}
</style>
<path class="st0" d="M120.15,340.85l1.13-193c0-0.16-0.02-0.31-0.06-0.47c-1.05-4.27-15.07-69.17,99.02-94.93
	c117.99-26.64,185.61,48.83,178.89,95.15c-6.33,43.65,16.85,179.28,16.63,179.75c-5.94,12.8-73.52,183.45-84.03,206.07
	c-0.55,1.19-2.11,1.5-3.07,0.61L218.35,432.29c-24.26-22.37-48.52-44.75-72.77-67.12c-4.2-3.87-19.58-13.74-20.97-19.34
	c-4.02-16.28,42.59-40.99,57.86-47.05c23.06-9.15,51.15-9.57,71.05,5.26c10.54,7.86,18.04,19.34,28.93,26.71
	c16.57,11.23,40.22,10.73,56.31-1.18c11.06-8.19,22.85-21.97,35.42-16.35c4.29,1.92,7.3,5.82,11.04,8.67
	c11.38,8.66,16.51,8.16,30.56,5.46"/>
<line class="st0" x1="121.28" y1="162.83" x2="399.13" y2="162.83"/>
<path class="st1" d="M269.96,474.4c28.7-5.04,57.84-7.54,86.98-7.47c-27.57,2.7-55.08,6.05-82.5,10.04
	c23.34-2.18,46.83-2.77,70.25-1.74c-20.8-2.37-42.13,0.03-61.88,6.97c21.31,1.72,42.61,3.44,63.92,5.17
	c-17.17,0.79-34.35,1.58-51.52,2.36c20.02-2.74,40.05-5.49,60.07-8.23c-16.06-1.2-32.19-1.38-48.28-0.54
	c-5.09,0.27-11.71,2.17-11.7,7.26c18.45,1.31,36.82,3.76,54.97,7.34c-14.64,5.84-30.83,7.72-46.42,5.39
	c0.04-4.5-4.95-33.26-0.52-34.07c7.48-1.36,24.97,29.37,26.13,36.89c1.16,7.51-5.43,15.39-13.03,15.17
	c-2.84-5.94-4.88-13.1-1.86-18.95c3.02-5.85,13.15-7.41,15.74-1.35c0.75,1.76,0.72,3.73,0.68,5.64c-0.1,4.91-0.2,9.82-0.31,14.73
	c-0.04,2.16-0.14,4.47-1.43,6.2s-4.24,2.35-5.54,0.64c-3.96-6.51,2.44-14.2,7.88-19.53c5.44-5.34,10.33-14.78,4.49-19.68"/>
<circle class="st0" cx="291.61" cy="291.61" r="282.61"/>
<text transform="matrix(1 0 0 1 328.6783 215.1677)" class="st2 st3 st4">2B</text>
</svg>
