<?xml version="1.0" encoding="utf-8"?>
<!-- Generator: Adobe Illustrator 24.0.1, SVG Export Plug-In . SVG Version: 6.00 Build 0)  -->
<svg version="1.1" id="Layer_1" xmlns="http://www.w3.org/2000/svg" xmlns:xlink="http://www.w3.org/1999/xlink" x="0px" y="0px"
	 viewBox="0 0 487.6 487.6" style="enable-background:new 0 0 487.6 487.6;" xml:space="preserve">
<style type="text/css">
	.st0{fill:#FFFFFF;}
</style>
<g id="XMLID_47_">
	<g id="XMLID_27_">
		<g id="XMLID_80_">
			
				<image style="overflow:visible;" width="2032" height="2033" id="XMLID_28_" xlink:href="36B3EBFA.png"  transform="matrix(0.24 0 0 0.24 -8.233782e-02 -0.1166)">
			</image>
			<g id="XMLID_35_">
				<path id="XMLID_38_" class="st0" d="M319.5,65.4H168.1c-57.1,0-103.3,46.3-103.3,103.3V320c0,57.1,46.3,103.3,103.3,103.3h151.3
					c57.1,0,103.3-46.3,103.3-103.3V168.7C422.8,111.6,376.5,65.4,319.5,65.4z M389.8,322.7c0,37.9-30.7,68.6-68.6,68.6H166.3
					c-37.9,0-68.6-30.7-68.6-68.6V167.8c0-37.9,30.7-68.6,68.6-68.6h154.9c37.9,0,68.6,30.7,68.6,68.6V322.7z"/>
				<path id="XMLID_41_" class="st0" d="M243.8,152.4c-51.3,0-92.9,41.6-92.9,92.9s41.6,92.9,92.9,92.9c51.3,0,92.9-41.6,92.9-92.9
					S295.1,152.4,243.8,152.4z M243.8,305.5c-33.3,0-60.2-27-60.2-60.2c0-33.3,27-60.2,60.2-60.2c33.3,0,60.2,27,60.2,60.2
					C304,278.5,277,305.5,243.8,305.5z"/>
				<circle id="XMLID_42_" class="st0" cx="339.8" cy="148.8" r="21.6"/>
			</g>
		</g>
	</g>
</g>
</svg>
